HIERARCHY
ROOT Hips
{
 OFFSET 0.000000 0.000000 0.000000
 CHANNELS 6 Xposition Yposition Zposition Yrotation Xrotation Zrotation
 JOINT Chest
 {
  OFFSET 0.000000 9.588913 -0.003946
  CHANNELS 3 Yrotation Xrotation Zrotation
  JOINT Chest2
  {
   OFFSET 0.000000 9.541882 0.008053
   CHANNELS 3 Yrotation Xrotation Zrotation
   JOINT Chest3
   {
    OFFSET 0.000000 9.501360 0.000000
    CHANNELS 3 Yrotation Xrotation Zrotation
    JOINT Chest4
    {
     OFFSET 0.000000 9.491660 0.000000
     CHANNELS 3 Yrotation Xrotation Zrotation
     JOINT Neck
     {
      OFFSET 0.000000 14.331917 0.000000
      CHANNELS 3 Yrotation Xrotation Zrotation
      JOINT Head
      {
       OFFSET 0.000000 8.884799 0.017034
       CHANNELS 3 Yrotation Xrotation Zrotation
       End Site
       {
        OFFSET 0.000000 16.896195 0.008993
       }
      }
     }
     JOINT RightCollar
     {
      OFFSET -2.923010 9.499495 0.000000
      CHANNELS 3 Yrotation Xrotation Zrotation
      JOINT RightShoulder
      {
       OFFSET -13.795216 0.000000 0.000000
       CHANNELS 3 Yrotation Xrotation Zrotation
       JOINT RightElbow
       {
        OFFSET -30.272209 0.000000 0.000000
        CHANNELS 3 Yrotation Xrotation Zrotation
        JOINT RightWrist
        {
         OFFSET -24.478199 0.000000 0.000000
         CHANNELS 3 Yrotation Xrotation Zrotation
         End Site
         {
          OFFSET -18.090752 0.000000 0.000000
         }
        }
       }
      }
     }
     JOINT LeftCollar
     {
      OFFSET 2.923010 9.499495 0.000000
      CHANNELS 3 Yrotation Xrotation Zrotation
      JOINT LeftShoulder
      {
       OFFSET 13.795216 0.000000 0.000000
       CHANNELS 3 Yrotation Xrotation Zrotation
       JOINT LeftElbow
       {
        OFFSET 30.272209 0.000000 0.000000
        CHANNELS 3 Yrotation Xrotation Zrotation
        JOINT LeftWrist
        {
         OFFSET 24.478199 0.000000 0.000000
         CHANNELS 3 Yrotation Xrotation Zrotation
         End Site
         {
          OFFSET 18.090752 0.000000 0.000000
         }
        }
       }
      }
     }
    }
   }
  }
 }
 JOINT RightHip
 {
  OFFSET -7.826875 0.019532 0.001973
  CHANNELS 3 Yrotation Xrotation Zrotation
  JOINT RightKnee
  {
   OFFSET 0.000000 -40.546152 -0.001885
   CHANNELS 3 Yrotation Xrotation Zrotation
   JOINT RightAnkle
   {
    OFFSET 0.000000 -39.417092 -0.003189
    CHANNELS 3 Yrotation Xrotation Zrotation
    JOINT RightToe
    {
     OFFSET 0.000000 -7.579396 17.243563
     CHANNELS 3 Yrotation Xrotation Zrotation
     End Site
     {
      OFFSET 0.000000 -1.500329 6.694466
     }
    }
   }
  }
 }
 JOINT LeftHip
 {
  OFFSET 7.826875 0.019532 0.001973
  CHANNELS 3 Yrotation Xrotation Zrotation
  JOINT LeftKnee
  {
   OFFSET 0.000000 -40.546152 -0.001885
   CHANNELS 3 Yrotation Xrotation Zrotation
   JOINT LeftAnkle
   {
    OFFSET 0.000000 -39.417092 -0.003189
    CHANNELS 3 Yrotation Xrotation Zrotation
    JOINT LeftToe
    {
     OFFSET 0.000000 -7.579396 17.243563
     CHANNELS 3 Yrotation Xrotation Zrotation
     End Site
     {
      OFFSET 0.000000 -1.500329 6.694466
     }
    }
   }
  }
 }
}
MOTION
Frames: 10
Frame Time: 0.008333
0.000000 87.345680 0.000000 0.000000 -5.767889 0.000000 0.000000 11.653876 0.000000 0.000000 -5.885988 0.000000 0.000000 -0.000000 0.000000 0.000000 -0.000000 0.000000 0.000000 12.528808 0.000000 0.000000 0.711711 0.000000 0.000000 -0.000000 0.000000 0.000000 -0.000000 0.000000 2.309063 -0.000000 0.000000 -2.309063 -0.000000 -0.000000 0.000000 -0.000000 0.000000 0.000000 0.000000 0.000000 -2.309063 0.000000 0.000000 2.309063 -0.000000 0.000000 0.000000 8.520374 0.000000 0.000000 1.905768 0.000000 -0.000000 -4.658254 0.000000 0.000000 -0.000000 0.000000 0.000000 8.520374 0.000000 0.000000 1.905768 0.000000 -0.000000 -4.658254 0.000000 0.000000 -0.000000 0.000000
12.853819 89.288575 4.521233 48.984165 -7.378272 0.416634 -0.077918 2.552047 0.714443 -0.048463 1.455422 0.412303 -0.058946 1.819330 0.515228 -0.048463 1.455422 0.412303 8.761128 23.032430 -1.633933 10.084239 -0.444543 -3.830136 -1.892230 0.481952 -1.478958 6.394603 -3.854746 87.581008 5.660735 6.295944 2.906721 -1.405866 -5.640100 -1.591189 -3.899142 0.317614 1.228804 -2.365366 -3.237417 -88.120362 -1.622796 4.279801 -0.578584 1.438380 -2.037346 0.231332 -3.479707 9.916660 -0.676562 -1.696588 4.599278 0.670100 2.587657 -6.154886 -0.582399 0.007422 -0.000162 -0.005597 -1.593535 8.956915 0.487529 -8.355008 3.913776 0.313297 -2.504315 -4.516069 -1.573823 -0.004330 0.016033 -0.014894
12.850969 89.287698 4.520411 48.938343 -7.410160 0.418515 -0.062077 2.570021 0.720193 -0.039919 1.465247 0.416091 -0.048239 1.831601 0.519997 -0.039919 1.465247 0.416091 8.768829 23.019298 -1.669204 10.101937 -0.457451 -3.871322 -1.918693 0.477142 -1.490431 6.397224 -3.867772 87.580901 5.648173 6.335785 2.912456 -1.407457 -5.637290 -1.599073 -3.926090 0.328198 1.253708 -2.479121 -3.065757 -87.851638 -2.294961 4.890077 -1.073437 1.584525 -1.970011 0.142518 -3.459245 9.918604 -0.683213 -1.688798 4.642627 0.672566 2.593955 -6.162756 -0.579728 0.010623 -0.007115 -0.005376 -1.588982 8.936419 0.471806 -8.346496 4.028892 0.325348 -2.487596 -4.583213 -1.573490 -0.004491 0.019599 -0.017014
12.845813 89.286550 4.518915 48.890344 -7.444150 0.415802 -0.043784 2.589511 0.733265 -0.029714 1.476331 0.420516 -0.035452 1.845445 0.525569 -0.029714 1.476331 0.420516 8.778082 23.002224 -1.713548 10.123694 -0.474384 -3.923014 -1.946195 0.472612 -1.502083 6.399202 -3.879350 87.573070 5.641921 6.388742 2.921981 -1.415705 -5.631001 -1.599100 -3.961424 0.339298 1.277942 -2.561321 -2.862272 -87.546562 -3.066739 5.435143 -1.683027 1.775515 -1.909790 0.036002 -3.449456 9.923058 -0.685111 -1.680618 4.688097 0.675560 2.610247 -6.179062 -0.578367 0.012158 -0.007578 -0.006868 -1.588679 8.907617 0.454895 -8.333165 4.165903 0.341522 -2.468873 -4.656877 -1.572503 -0.003692 0.017757 -0.019515
12.839100 89.285216 4.516348 48.839966 -7.483372 0.413735 -0.021919 2.613092 0.749237 -0.017284 1.489423 0.425810 -0.019876 1.861796 0.532237 -0.017284 1.489424 0.425810 8.789321 22.981579 -1.766616 10.149944 -0.494849 -3.984939 -1.977673 0.464587 -1.513874 6.405869 -3.888012 87.554273 5.639926 6.453459 2.938515 -1.428596 -5.622676 -1.587701 -4.004892 0.349141 1.300459 -2.599885 -2.625511 -87.200540 -3.950457 5.929225 -2.412339 2.008935 -1.846494 -0.088532 -3.457964 9.928944 -0.693211 -1.677553 4.738299 0.681419 2.644623 -6.196236 -0.576742 0.012945 -0.007537 -0.009965 -1.592260 8.868437 0.432594 -8.317731 4.333417 0.361526 -2.447694 -4.745367 -1.573367 -0.002552 0.014733 -0.021309
12.830811 89.283700 4.512888 48.786022 -7.529438 0.412314 0.004130 2.640868 0.769008 -0.002270 1.504532 0.432439 -0.001062 1.880664 0.540586 -0.002270 1.504532 0.432439 8.802728 22.959608 -1.827753 10.180790 -0.516134 -4.056422 -2.013109 0.452842 -1.529083 6.416233 -3.893764 87.527000 5.639763 6.532393 2.964245 -1.442550 -5.612097 -1.566437 -4.054171 0.357698 1.323697 -2.591049 -2.364080 -86.821115 -4.943866 6.399654 -3.249539 2.274813 -1.771617 -0.231750 -3.488431 9.937148 -0.708165 -1.677436 4.794667 0.690789 2.697429 -6.214907 -0.576128 0.013351 -0.006926 -0.014028 -1.596511 8.818007 0.405297 -8.305418 4.536578 0.385639 -2.422710 -4.850523 -1.576922 -0.000906 0.009664 -0.022285
12.820307 89.281853 4.508520 48.723599 -7.580189 0.410562 0.035163 2.671432 0.792706 0.015858 1.521111 0.440647 0.021653 1.901366 0.550923 0.015858 1.521111 0.440647 8.821465 22.936077 -1.895649 10.219580 -0.538220 -4.136791 -2.052249 0.439732 -1.546147 6.435376 -3.898145 87.490676 5.641658 6.621798 2.998577 -1.454086 -5.600188 -1.541387 -4.105090 0.363329 1.351286 -2.535334 -2.084709 -86.421635 -6.038767 6.878921 -4.165721 2.554259 -1.685280 -0.398398 -3.532614 9.946526 -0.725954 -1.673204 4.853676 0.701356 2.759734 -6.233033 -0.576937 0.013463 -0.005296 -0.017478 -1.594507 8.751713 0.376327 -8.301387 4.780285 0.410660 -2.391254 -4.974724 -1.580199 0.000958 0.002475 -0.023889
12.806989 89.279416 4.502793 48.654409 -7.631895 0.408742 0.070820 2.703962 0.820059 0.036753 1.538857 0.450180 0.047836 1.923522 0.562930 0.036753 1.538857 0.450180 8.846703 22.908992 -1.970726 10.267768 -0.563329 -4.226826 -2.095279 0.425745 -1.562761 6.467995 -3.902609 87.442698 5.646096 6.715339 3.039504 -1.464879 -5.588918 -1.513939 -4.153513 0.364874 1.386422 -2.437843 -1.792560 -86.013625 -7.236849 7.391495 -5.136164 2.833566 -1.585711 -0.589278 -3.583999 9.954423 -0.744570 -1.659530 4.912403 0.710915 2.822044 -6.249731 -0.578389 0.013167 -0.001932 -0.019420 -1.586017 8.661382 0.346287 -8.306496 5.071666 0.434224 -2.354401 -5.120410 -1.581382 0.003106 -0.007032 -0.026511
12.790198 89.276044 4.495036 48.590106 -7.679764 0.406362 0.107720 2.737366 0.851720 0.058306 1.557026 0.461323 0.074849 1.946206 0.576954 0.058306 1.557027 0.461323 8.876648 22.876551 -2.056320 10.324120 -0.593597 -4.329840 -2.136506 0.411653 -1.580898 6.505966 -3.906401 87.382833 5.655398 6.816264 3.085636 -1.479262 -5.582001 -1.483118 -4.195694 0.361615 1.426993 -2.307951 -1.492166 -85.597301 -8.545873 7.943582 -6.150713 3.113170 -1.466680 -0.800150 -3.646997 9.956152 -0.763409 -1.632568 4.971268 0.717386 2.877890 -6.265814 -0.577473 0.012039 0.003266 -0.020763 -1.580939 8.535805 0.314424 -8.319451 5.419746 0.455650 -2.315174 -5.290262 -1.580522 0.005816 -0.018680 -0.029782
12.769859 89.271442 4.484937 48.536980 -7.723037 0.404028 0.143904 2.771633 0.888494 0.079671 1.575415 0.474370 0.101637 1.969161 0.593360 0.079670 1.575415 0.474369 8.911312 22.837435 -2.155805 10.389539 -0.630351 -4.449647 -2.172787 0.397811 -1.603675 6.544721 -3.909416 87.310777 5.668996 6.921621 3.135959 -1.495168 -5.577274 -1.451004 -4.233690 0.354384 1.465806 -2.157641 -1.186799 -85.163013 -9.970442 8.521478 -7.201701 3.401758 -1.328591 -1.025239 -3.726496 9.950313 -0.785708 -1.596903 5.032519 0.723452 2.931498 -6.283006 -0.575110 0.010456 0.010703 -0.021768 -1.585048 8.368835 0.279613 -8.340731 5.833147 0.473188 -2.273494 -5.486618 -1.577837 0.008811 -0.033078 -0.032803
